<svg width="100" height="75" viewBox="0 0 100 75" fill="none" xmlns="http://www.w3.org/2000/svg">
<path d="M4.64398 8.96197C4.64398 5.11702 7.76093 2.00006 11.6059 2.00006H32.1853C33.601 2.00006 34.9831 2.43165 36.1472 3.23729L47.5953 11.1601C48.7594 11.9658 50.1415 12.3973 51.5572 12.3973H87.1602C91.0052 12.3973 94.1221 15.5143 94.1221 19.3593V65.412C94.1221 70.5879 89.9262 74.7838 84.7503 74.7838H14.0158C8.83989 74.7838 4.64398 70.5879 4.64398 65.412V8.96197Z" fill="url(#paint0_linear_12_3246)"/>
<path d="M11.6059 2.53522H32.185C33.4918 2.53522 34.7677 2.93416 35.8422 3.6778L47.2905 11.6006C48.5441 12.4682 50.0325 12.9327 51.5571 12.9327H87.1606C90.7096 12.9329 93.5864 15.8104 93.5864 19.3594V65.4122C93.5863 70.2922 89.6305 74.2481 84.7504 74.2481H14.0161C9.13596 74.2481 5.1792 70.2922 5.17914 65.4122V8.96198C5.17914 5.41279 8.05671 2.53522 11.6059 2.53522Z" stroke="white" stroke-opacity="0.08" stroke-width="1.07106"/>
<g filter="url(#filter0_di_12_3246)">
<rect width="45.2091" height="45.2071" rx="3.56238" transform="matrix(0.991795 0.127837 -0.124157 0.992263 51.4587 5.31042)" fill="white"/>
<rect x="0.128786" y="0.166259" width="44.9122" height="44.9103" rx="3.41394" transform="matrix(0.991795 0.127837 -0.124157 0.992263 51.4804 5.29525)" stroke="black" stroke-opacity="0.04" stroke-width="0.296865"/>
</g>
<path d="M57.7951 34.4992L59.0768 24.5561L62.9996 25.0617C63.7538 25.1589 64.3777 25.3858 64.8714 25.7423C65.3655 26.0955 65.7189 26.5441 65.9318 27.0882C66.1483 27.6294 66.214 28.2302 66.1289 28.8904C66.0438 29.5507 65.8263 30.115 65.4764 30.5832C65.1265 31.0514 64.6631 31.3915 64.0863 31.6034C63.5127 31.8157 62.844 31.8727 62.0801 31.7742L59.5798 31.4519L59.7969 29.7672L61.9574 30.0457C62.362 30.0978 62.7043 30.0712 62.9845 29.9658C63.2682 29.8576 63.4909 29.6873 63.6525 29.4547C63.8177 29.2194 63.9214 28.9382 63.9636 28.6113C64.0061 28.2812 63.9769 27.9846 63.8759 27.7215C63.7786 27.4556 63.6059 27.2375 63.3581 27.0674C63.1106 26.894 62.7829 26.781 62.3751 26.7285L60.9574 26.5457L59.8974 34.7702L57.7951 34.4992ZM70.1718 36.0945L66.6471 35.6401L67.9287 25.6971L71.4826 26.1551C72.4827 26.284 73.318 26.5941 73.9885 27.0852C74.6593 27.5731 75.1412 28.2127 75.4341 29.004C75.7302 29.7957 75.8117 30.7077 75.6786 31.7402C75.5451 32.776 75.2346 33.6408 74.747 34.3348C74.2626 35.0292 73.6307 35.5285 72.8511 35.8327C72.0748 36.1374 71.1817 36.2246 70.1718 36.0945ZM68.9815 34.1099L70.3166 34.282C70.938 34.3621 71.4749 34.3194 71.9273 34.154C72.3834 33.9857 72.7482 33.6823 73.0219 33.2438C73.2993 32.8024 73.4857 32.2111 73.5812 31.4699C73.6759 30.7352 73.6449 30.1208 73.4881 29.6268C73.3346 29.1331 73.06 28.749 72.6643 28.4742C72.2687 28.1995 71.7602 28.0221 71.1387 27.9419L69.7987 27.7692L68.9815 34.1099ZM76.5938 36.9222L77.8754 26.9791L84.4588 27.8277L84.2354 29.5609L79.7542 28.9833L79.4489 31.3526L83.4931 31.8739L83.2697 33.6071L79.2254 33.0858L78.696 37.1932L76.5938 36.9222Z" fill="#6D56FA"/>
<g filter="url(#filter1_di_12_3246)">
<rect width="45.2091" height="45.2071" rx="3.56238" transform="matrix(0.97437 -0.224951 0.228564 0.973529 3.5368 19.2668)" fill="white"/>
<rect x="0.178554" y="0.111113" width="44.9122" height="44.9103" rx="3.41394" transform="matrix(0.97437 -0.224951 0.228564 0.973529 3.51598 19.31)" stroke="black" stroke-opacity="0.04" stroke-width="0.296865"/>
</g>
<path d="M19.6259 44.4319L17.3707 34.6635L21.2246 33.7737C21.9655 33.6027 22.6294 33.5984 23.2162 33.761C23.8023 33.9205 24.2897 34.2182 24.6784 34.6543C25.0696 35.0865 25.3401 35.627 25.4898 36.2756C25.6396 36.9243 25.6318 37.529 25.4665 38.0896C25.3012 38.6503 24.985 39.1302 24.5178 39.5295C24.0538 39.928 23.4466 40.2139 22.6962 40.3871L20.2398 40.9542L19.8577 39.2991L21.9802 38.8091C22.3777 38.7173 22.6894 38.5734 22.9154 38.3772C23.1439 38.1771 23.2934 37.9399 23.3641 37.6657C23.4372 37.3876 23.4367 37.0879 23.3625 36.7668C23.2876 36.4424 23.1571 36.1745 22.971 35.9629C22.7872 35.7474 22.5496 35.603 22.258 35.5296C21.9657 35.4531 21.6192 35.4611 21.2186 35.5536L19.8258 35.8751L21.6912 43.9551L19.6259 44.4319ZM31.7851 41.6247L28.3223 42.4241L26.0671 32.6557L29.5585 31.8497C30.5411 31.6228 31.4321 31.6231 32.2315 31.8505C33.0301 32.0748 33.7043 32.5069 34.254 33.147C34.8069 33.7863 35.2004 34.6132 35.4346 35.6276C35.6695 36.6451 35.679 37.564 35.4631 38.3842C35.2504 39.2036 34.8314 39.8915 34.2063 40.4478C33.5843 41.0033 32.7772 41.3956 31.7851 41.6247ZM29.9791 40.1778L31.2907 39.8749C31.9013 39.734 32.3898 39.5073 32.7565 39.1949C33.1256 38.8786 33.3622 38.4673 33.4663 37.9609C33.5729 37.4507 33.5422 36.8315 33.3741 36.1033C33.2074 35.3815 32.9647 34.8162 32.646 34.4075C32.3304 33.998 31.9393 33.7333 31.4729 33.6132C31.0064 33.4932 30.4679 33.5036 29.8574 33.6446L28.5409 33.9485L29.9791 40.1778ZM38.0943 40.1681L35.8391 30.3997L42.3068 28.9065L42.6999 30.6093L38.2975 31.6257L38.8349 33.9533L42.808 33.036L43.2012 34.7388L39.228 35.6561L40.1596 39.6913L38.0943 40.1681Z" fill="#6D56FA"/>
<g filter="url(#filter2_di_12_3246)">
<rect width="45.2091" height="45.2071" rx="3.56238" transform="matrix(1 0 0.00370914 0.999993 27.0063 5.02533)" fill="white"/>
<rect x="0.148983" y="0.148431" width="44.9122" height="44.9103" rx="3.41394" transform="matrix(1 0 0.00370914 0.999993 27.0057 5.02533)" stroke="black" stroke-opacity="0.04" stroke-width="0.296865"/>
</g>
<path d="M37.0221 33.1646V23.1393H40.9774C41.7378 23.1393 42.3856 23.2845 42.9208 23.5749C43.456 23.8621 43.8639 24.2619 44.1446 24.7743C44.4285 25.2834 44.5704 25.8708 44.5704 26.5365C44.5704 27.2023 44.4269 27.7897 44.1397 28.2988C43.8525 28.8079 43.4364 29.2044 42.8914 29.4883C42.3497 29.7722 41.6937 29.9142 40.9235 29.9142H38.4025V28.2156H40.5809C40.9888 28.2156 41.3249 28.1454 41.5893 28.0051C41.8569 27.8615 42.0559 27.664 42.1865 27.4128C42.3203 27.1582 42.3872 26.8661 42.3872 26.5365C42.3872 26.2037 42.3203 25.9132 42.1865 25.6652C42.0559 25.4139 41.8569 25.2197 41.5893 25.0827C41.3217 24.9423 40.9823 24.8722 40.5711 24.8722H39.1417V33.1646H37.0221ZM49.5011 33.1646H45.9472V23.1393H49.5305C50.5389 23.1393 51.407 23.34 52.1347 23.7414C52.8625 24.1395 53.4222 24.7122 53.8138 25.4596C54.2087 26.2069 54.4061 27.1011 54.4061 28.1421C54.4061 29.1865 54.2087 30.0839 53.8138 30.8345C53.4222 31.5851 52.8592 32.1611 52.1249 32.5625C51.3939 32.9639 50.5193 33.1646 49.5011 33.1646ZM48.0668 31.3485H49.413C50.0396 31.3485 50.5666 31.2375 50.9942 31.0156C51.4249 30.7904 51.748 30.4429 51.9634 29.9729C52.1821 29.4997 52.2914 28.8895 52.2914 28.1421C52.2914 27.4013 52.1821 26.796 51.9634 26.326C51.748 25.8561 51.4266 25.5102 50.9991 25.2882C50.5715 25.0663 50.0445 24.9554 49.4179 24.9554H48.0668V31.3485ZM55.9762 33.1646V23.1393H62.6141V24.8868H58.0959V27.2757H62.1736V29.0233H58.0959V33.1646H55.9762Z" fill="#6D56FA"/>
<path d="M4.64398 42.7321H94.1221V65.4118C94.1221 70.5877 89.9262 74.7836 84.7503 74.7836H14.0158C8.83989 74.7836 4.64398 70.5877 4.64398 65.4118V42.7321Z" fill="#E1E1E1"/>
<defs>
<filter id="filter0_di_12_3246" x="42.6979" y="1.5801" width="56.7469" height="56.9099" filterUnits="userSpaceOnUse" color-interpolation-filters="sRGB">
<feFlood flood-opacity="0" result="BackgroundImageFix"/>
<feColorMatrix in="SourceAlpha" type="matrix" values="0 0 0 0 0 0 0 0 0 0 0 0 0 0 0 0 0 0 127 0" result="hardAlpha"/>
<feOffset dy="-0.593729"/>
<feGaussianBlur stdDeviation="1.78119"/>
<feComposite in2="hardAlpha" operator="out"/>
<feColorMatrix type="matrix" values="0 0 0 0 0.68623 0 0 0 0 0.68623 0 0 0 0 0.68623 0 0 0 0.25 0"/>
<feBlend mode="normal" in2="BackgroundImageFix" result="effect1_dropShadow_12_3246"/>
<feBlend mode="normal" in="SourceGraphic" in2="effect1_dropShadow_12_3246" result="shape"/>
<feColorMatrix in="SourceAlpha" type="matrix" values="0 0 0 0 0 0 0 0 0 0 0 0 0 0 0 0 0 0 127 0" result="hardAlpha"/>
<feOffset/>
<feGaussianBlur stdDeviation="4.74983"/>
<feComposite in2="hardAlpha" operator="arithmetic" k2="-1" k3="1"/>
<feColorMatrix type="matrix" values="0 0 0 0 0.674316 0 0 0 0 0.674316 0 0 0 0 0.674316 0 0 0 0.12 0"/>
<feBlend mode="normal" in2="shape" result="effect2_innerShadow_12_3246"/>
</filter>
<filter id="filter1_di_12_3246" x="0.693606" y="5.65011" width="60.0695" height="59.8867" filterUnits="userSpaceOnUse" color-interpolation-filters="sRGB">
<feFlood flood-opacity="0" result="BackgroundImageFix"/>
<feColorMatrix in="SourceAlpha" type="matrix" values="0 0 0 0 0 0 0 0 0 0 0 0 0 0 0 0 0 0 127 0" result="hardAlpha"/>
<feOffset dy="-0.593729"/>
<feGaussianBlur stdDeviation="1.78119"/>
<feComposite in2="hardAlpha" operator="out"/>
<feColorMatrix type="matrix" values="0 0 0 0 0.68623 0 0 0 0 0.68623 0 0 0 0 0.68623 0 0 0 0.25 0"/>
<feBlend mode="normal" in2="BackgroundImageFix" result="effect1_dropShadow_12_3246"/>
<feBlend mode="normal" in="SourceGraphic" in2="effect1_dropShadow_12_3246" result="shape"/>
<feColorMatrix in="SourceAlpha" type="matrix" values="0 0 0 0 0 0 0 0 0 0 0 0 0 0 0 0 0 0 127 0" result="hardAlpha"/>
<feOffset/>
<feGaussianBlur stdDeviation="4.74983"/>
<feComposite in2="hardAlpha" operator="arithmetic" k2="-1" k3="1"/>
<feColorMatrix type="matrix" values="0 0 0 0 0.674316 0 0 0 0 0.674316 0 0 0 0 0.674316 0 0 0 0.12 0"/>
<feBlend mode="normal" in2="shape" result="effect2_innerShadow_12_3246"/>
</filter>
<filter id="filter2_di_12_3246" x="23.4571" y="0.869225" width="52.4752" height="52.3316" filterUnits="userSpaceOnUse" color-interpolation-filters="sRGB">
<feFlood flood-opacity="0" result="BackgroundImageFix"/>
<feColorMatrix in="SourceAlpha" type="matrix" values="0 0 0 0 0 0 0 0 0 0 0 0 0 0 0 0 0 0 127 0" result="hardAlpha"/>
<feOffset dy="-0.593729"/>
<feGaussianBlur stdDeviation="1.78119"/>
<feComposite in2="hardAlpha" operator="out"/>
<feColorMatrix type="matrix" values="0 0 0 0 0.68623 0 0 0 0 0.68623 0 0 0 0 0.68623 0 0 0 0.25 0"/>
<feBlend mode="normal" in2="BackgroundImageFix" result="effect1_dropShadow_12_3246"/>
<feBlend mode="normal" in="SourceGraphic" in2="effect1_dropShadow_12_3246" result="shape"/>
<feColorMatrix in="SourceAlpha" type="matrix" values="0 0 0 0 0 0 0 0 0 0 0 0 0 0 0 0 0 0 127 0" result="hardAlpha"/>
<feOffset/>
<feGaussianBlur stdDeviation="4.74983"/>
<feComposite in2="hardAlpha" operator="arithmetic" k2="-1" k3="1"/>
<feColorMatrix type="matrix" values="0 0 0 0 0.674316 0 0 0 0 0.674316 0 0 0 0 0.674316 0 0 0 0.12 0"/>
<feBlend mode="normal" in2="shape" result="effect2_innerShadow_12_3246"/>
</filter>
<linearGradient id="paint0_linear_12_3246" x1="49.383" y1="21.5958" x2="49.383" y2="53.5889" gradientUnits="userSpaceOnUse">
<stop stop-color="#E1E1E1"/>
<stop offset="1" stop-color="#AAAAAA"/>
</linearGradient>
</defs>
</svg>
