<svg width="39" height="36" viewBox="0 0 39 36" fill="none" xmlns="http://www.w3.org/2000/svg">
<path fill-rule="evenodd" clip-rule="evenodd" d="M17.6767 6.11532C20.5864 6.05754 22.705 6.74579 24.2759 7.84389C21.0471 10.5211 19.2851 14.3864 18.4892 18.0984C17.6651 21.9417 17.7912 25.9895 18.6751 29.1942C19.1144 30.7873 19.7919 32.3575 20.7992 33.5962C21.8216 34.8535 23.4007 36 25.5012 36C27.8228 36 29.6488 34.9409 30.9531 33.5273C32.1949 32.181 33.0128 30.4779 33.5723 28.8668C34.6949 25.6355 35.0719 21.8996 35.1587 19.4766L35.1602 19.4343L35.1606 19.3922C35.1817 16.7634 34.8027 13.6465 33.6877 10.6723C34.5849 10.662 35.5779 10.753 36.6782 10.9698C36.6795 8.83178 37.298 6.80185 38.7414 5.15996C35.5831 4.42426 32.7378 4.38542 30.2311 4.94241C27.4011 1.8818 23.2392 -0.108555 17.5526 0.00458432C8.90315 0.176638 4.59893 7.02055 2.53536 13.9188C0.438161 20.9298 0.158973 29.3492 0.28368 35.5037L6.45851 35.3812C6.3367 29.3689 6.64064 21.727 8.45749 15.6536C10.308 9.46741 13.2488 6.20353 17.6767 6.11532ZM24.5308 19.3672C25.1089 16.6708 26.2519 14.3586 27.9066 12.8239C28.6759 14.8875 28.9976 17.188 28.985 19.3023C28.9048 21.4562 28.5639 24.484 27.7318 26.8798C27.3112 28.0902 26.8381 28.9225 26.3919 29.4062C26.1094 29.7126 25.8942 29.8289 25.7019 29.8689C25.6763 29.8419 25.646 29.8075 25.6108 29.7642C25.3155 29.4012 24.9391 28.6942 24.6332 27.5849C24.0263 25.385 23.896 22.3272 24.5308 19.3672ZM25.7869 29.9492C25.795 29.9554 25.7991 29.9575 25.7991 29.9575L25.795 29.9542C25.795 29.9542 25.7904 29.9512 25.7869 29.9492Z" fill="#6D56FA"/>
</svg>
